# xmcd
#
# Track frame offsets:
#	150
#	13984
#	24851
#	37405
#	55410
#	70557
#	88266
#	108367
#	121764
#	131521
#	142356
#	166345
#	181118
#	193958
#	207376
#	217854
#
# Disc length: 3025 seconds
#
# Revision: 1
# Processed by: cddbd v1.5.1PL0 Copyright (c) Steve Scherf et al.
# Submitted via: audiograbber 1.83.01
#
DISCID=ed0bcf10
DTITLE=Louis Armstrong - Collection CD3
DYEAR=1900
DGENRE=
TTITLE0=By 'N' Bye
TTITLE1=Dippermouth Blues
TTITLE2=Jelly Roll Blues
TTITLE3=Panama
TTITLE4=New Orleans Stomp
TTITLE5=Someday You'll Be Sorry
TTITLE6=Indiana
TTITLE7=Snake Rag
TTITLE8=So Long Dearie
TTITLE9=Chesscake
TTITLE10=I Want A Big Butter And Egg Man
TTITLE11=Chimes Blues
TTITLE12=Tin Roof Blues
TTITLE13=Honeysuckle Rose
TTITLE14=Pretty Little Missy
TTITLE15=Royal Garden Blues
EXTD=
EXTT0=
EXTT1=
EXTT2=
EXTT3=
EXTT4=
EXTT5=
EXTT6=
EXTT7=
EXTT8=
EXTT9=
EXTT10=
EXTT11=
EXTT12=
EXTT13=
EXTT14=
EXTT15=
PLAYORDER=
